:SAMPLES-PER-SECOND 30
:FRAME-RANGE 1-2045
:FULLY-SPECIFIED
:DEGREES
1215
root  -30.1378 30.0982 83.3549 -170.324 3.80338 -175.17
RightUpLeg  -62.823 15.9941 0.583217
RightLeg  72.5741 2.01691 6.32246
RightFoot  -26.6824 0.479776 4.90562
RightToes  -5.28216e-011 1.2921e-014 -6.02303e-014
Spine  38.1055 0.305701 -11.6093
Spine1  1.12354 -3.12209 1.22795
HEad  -18.5361 -6.03645 18.5483
LeftShoulder1  3.48604 -16.0897 -10.9645
LeftArm  -13.041 -57.328 -56.525
LeftForeArm  6.85833 6.69935 -4.92784
LeftHand  -0.0228317 5.00498 -1.9279
RightShoulder  3.03117 7.62958 21.5363
RightArm  -40.1918 43.7651 51.9731
RightForeArm  9.33667 -3.56973 -12.8913
RightHand  0.205443 0.634396 3.90869
LeftUpLeg  -40.2984 2.20319 29.2092
LeftLeg  68.3785 -2.62604 -6.49594
LeftFoot  -35.1336 -4.73481 -23.1993
LeftToes  9.43379e-011 5.24309e-011 -4.66411e-011
1216
root  -30.6392 30.6273 83.0039 -168.735 10.9413 -174.524
RightUpLeg  -62.0936 11.5617 3.28563
RightLeg  69.2105 0.406261 0.424594
RightFoot  -24.6726 0.664445 7.11225
RightToes  -5.28216e-011 1.2921e-014 -6.02303e-014
Spine  37.0372 -0.398509 -12.2497
Spine1  0.879834 -3.92462 1.2521
HEad  -18.3924 -2.35284 16.2556
LeftShoulder1  3.5714 -16.5108 -11.0148
LeftArm  -9.27231 -57.3757 -61.8427
LeftForeArm  6.91694 6.79206 -5.48071
LeftHand  -0.0199799 4.97727 -2.80444
RightShoulder  2.83327 6.90771 21.5529
RightArm  -42.4999 40.8129 47.5915
RightForeArm  11.2526 -3.69133 -12.2636
RightHand  0.214797 0.931353 3.86505
LeftUpLeg  -35.6733 4.63934 28.4518
LeftLeg  66.2144 -2.03893 -4.33146
LeftFoot  -36.2797 -5.02484 -23.4244
LeftToes  9.43379e-011 5.24309e-011 -4.66411e-011
1217
root  -30.8328 31.1703 82.4602 -167.006 17.798 -174.114
RightUpLeg  -62.5452 9.84357 2.54938
RightLeg  66.1013 -0.0260695 -0.712557
RightFoot  -22.7316 0.511198 6.66702
RightToes  -5.28216e-011 1.2921e-014 -6.02303e-014
Spine  36.1418 -0.813452 -12.7453
Spine1  0.394318 -4.5471 2.06385
HEad  -18.9657 1.19766 12.9521
LeftShoulder1  3.6656 -16.8913 -11.1517
LeftArm  -4.40236 -57.5809 -67.9376
LeftForeArm  7.26255 6.92452 -6.26572
LeftHand  0.000529708 4.28761 -2.7814
RightShoulder  2.51218 5.85062 21.2148
RightArm  -45.3611 37.7539 43.1101
RightForeArm  12.0347 -0.264241 -11.3092
RightHand  0.251195 1.23718 4.29394
LeftUpLeg  -30.4127 8.10864 27.5927
LeftLeg  62.7026 -1.85886 -3.26776
LeftFoot  -37.2991 -5.24289 -23.4371
LeftToes  9.43379e-011 5.24309e-011 -4.66411e-011
1218
root  -30.6437 31.6758 81.7315 -165.6 23.4813 -174.272
RightUpLeg  -62.9821 9.66887 -0.519516
RightLeg  63.7965 -1.23737 -3.32326
RightFoot  -23.0296 0.435296 5.7757
RightToes  -5.28216e-011 1.2921e-014 -6.02303e-014
Spine  34.9104 -1.46633 -13.2503
Spine1  0.532744 -5.28653 3.10855
HEad  -20.2042 4.22666 9.12399
LeftShoulder1  3.66453 -17.3181 -10.725
LeftArm  0.832371 -58.004 -74.0677
LeftForeArm  7.25747 6.50219 -7.09416
LeftHand  0.042999 3.1182 -3.18728
RightShoulder  2.23262 5.06964 20.3655
RightArm  -48.1557 34.5267 38.2595
RightForeArm  10.3769 4.36964 -10.2142
RightHand  0.308472 1.12319 5.40341
LeftUpLeg  -24.971 12.1061 26.7017
LeftLeg  58.3598 -2.43302 -3.69177
LeftFoot  -37.6936 -5.28247 -23.2565
LeftToes  9.43379e-011 5.24309e-011 -4.66411e-011
1219
root  -30.1593 32.2872 80.9403 -164.085 27.6734 -174.972
RightUpLeg  -62.9905 9.08744 -4.13413
RightLeg  61.4851 -3.88572 -8.23527
RightFoot  -22.7652 0.278962 4.33079
RightToes  -5.28216e-011 1.2921e-014 -6.02303e-014
Spine  34.1355 -2.25599 -13.612
Spine1  0.625342 -6.47559 5.07746
HEad  -21.5881 6.63573 5.68689
LeftShoulder1  3.67771 -17.4881 -10.6323
LeftArm  6.23947 -58.9184 -80.0381
LeftForeArm  8.25944 4.4665 -8.03314
LeftHand  0.0595134 2.91024 -3.6516
RightShoulder  1.98976 4.37999 19.5238
RightArm  -52.0996 31.0931 33.8413
RightForeArm  10.0528 8.72834 -9.41574
RightHand  0.429988 1.88944 6.69831
LeftUpLeg  -20.0394 15.2444 25.5303
LeftLeg  52.3685 -3.13761 -3.87341
LeftFoot  -36.6614 -5.08743 -23.3481
LeftToes  9.43379e-011 5.24309e-011 -4.66411e-011
1220
root  -29.3584 32.9636 80.075 -161.612 31.6577 -175.716
RightUpLeg  -62.7148 8.03869 -6.73281
RightLeg  58.8878 -7.55121 -13.6976
RightFoot  -22.134 0.0618164 2.24162
RightToes  -5.28216e-011 1.2921e-014 -6.02303e-014
Spine  32.274 -3.25145 -13.2657
Spine1  1.11826 -7.38242 6.17809
HEad  -22.5453 8.2524 2.62652
LeftShoulder1  3.69345 -17.6792 -10.5348
LeftArm  11.1268 -59.6284 -85.6901
LeftForeArm  9.96872 1.56453 -8.78791
LeftHand  0.0847124 2.15664 -3.54354
RightShoulder  1.76534 3.73557 18.6227
RightArm  -59.6313 27.5673 30.4535
RightForeArm  12.8955 12.4128 -8.29648
RightHand  0.657078 3.57855 8.23615
LeftUpLeg  -15.3693 18.433 24.2708
LeftLeg  44.61 -3.8259 -3.61067
LeftFoot  -34.1393 -4.79027 -24.4457
LeftToes  9.43379e-011 5.24309e-011 -4.66411e-011
1221
root  -28.306 33.5554 79.1517 -158.927 35.4169 -176.698
RightUpLeg  -61.2258 5.69669 -7.82821
RightLeg  56.1584 -11.1215 -17.6045
RightFoot  -21.9625 0.525474 7.24905
RightToes  -5.28216e-011 1.2921e-014 -6.02303e-014
Spine  30.1984 -4.32567 -12.4914
Spine1  1.85481 -8.17737 6.69256
HEad  -23.4563 9.41714 -1.04503
LeftShoulder1  3.59524 -17.7469 -9.95283
LeftArm  15.2323 -60.1528 -90.3698
LeftForeArm  11.5601 -2.58323 -9.45464
LeftHand  0.101517 1.7202 -3.57348
RightShoulder  1.61453 3.36852 17.6544
RightArm  -70.5077 22.9615 28.4185
RightForeArm  19.361 16.7716 -5.0141
RightHand  0.967856 5.50414 9.94963
LeftUpLeg  -11.4867 19.5156 22.729
LeftLeg  37.2889 -3.57511 -2.53361
LeftFoot  -29.4735 -4.31471 -27.6504
LeftToes  9.43379e-011 5.24309e-011 -4.66411e-011
1222
root  -27.0893 34.061 78.2275 -156.687 39.4094 -177.451
RightUpLeg  -59.4126 1.33968 -5.179
RightLeg  53.9181 -13.8644 -19.808
RightFoot  -20.3837 0.817307 12.0507
RightToes  -5.28216e-011 1.2921e-014 -6.02303e-014
Spine  29.1211 -4.70591 -11.6982
Spine1  2.27182 -8.61145 7.61522
HEad  -24.1751 10.3886 -3.90901
LeftShoulder1  3.42984 -17.6741 -9.14171
LeftArm  20.9157 -61.076 -94.869
LeftForeArm  12.4427 -6.57724 -10.2147
LeftHand  0.101782 1.68032 -3.34576
RightShoulder  1.56997 3.28554 17.2465
RightArm  -77.2116 18.5113 25.9442
RightForeArm  22.6798 19.4347 -1.50598
RightHand  1.27758 7.42578 11.1366
LeftUpLeg  -8.19782 17.837 21.3878
LeftLeg  32.2569 -1.04707 -0.348688
LeftFoot  -21.8916 -2.94952 -32.5196
LeftToes  9.43379e-011 5.24309e-011 -4.66411e-011
1223
root  -25.7102 34.3155 77.3656 -154.58 44.9167 -177.352
RightUpLeg  -59.3166 -2.48714 -1.13242
RightLeg  52.2006 -10.0384 -13.9142
RightFoot  -21.4836 0.779005 10.3997
RightToes  -5.28216e-011 1.2921e-014 -6.02303e-014
Spine  28.0459 -4.72688 -11.2027
Spine1  2.16099 -8.12003 6.79735
HEad  -23.9588 12.2568 -6.34721
LeftShoulder1  3.30558 -17.4789 -8.64796
LeftArm  29.9433 -61.7226 -97.0522
LeftForeArm  8.67624 -12.2589 -9.58014
LeftHand  0.0988209 1.46546 -3.17641
RightShoulder  1.59663 3.57613 16.5791
RightArm  -83.4256 14.5796 25.3655
RightForeArm  26.0949 22.1749 2.42614
RightHand  1.50499 8.88912 11.7557
LeftUpLeg  -6.0807 13.605 19.8373
LeftLeg  31.911 4.04211 3.0733
LeftFoot  -13.3474 -0.490289 -31.7404
LeftToes  9.43379e-011 5.24309e-011 -4.66411e-011
1224
root  -24.2402 34.352 76.4702 -152.152 49.882 -174.882
RightUpLeg  -57.7669 -4.50688 2.78495
RightLeg  51.5249 -7.20936 -9.97427
RightFoot  -19.2443 0.688643 11.8275
RightToes  -5.28216e-011 1.2921e-014 -6.02303e-014
Spine  27.2843 -4.95429 -9.55035
Spine1  3.11847 -7.67438 5.471
HEad  -23.1928 14.8123 -8.36912
LeftShoulder1  3.23636 -16.5864 -9.06413
LeftArm  38.4226 -62.2254 -97.8025
LeftForeArm  3.1922 -17.7216 -7.21192
LeftHand  0.0928908 0.983797 -2.61453
RightShoulder  1.6263 3.82296 16.1619
RightArm  -83.0771 12.7411 25.3361
RightForeArm  24.4251 25.0442 4.07138
RightHand  1.71253 10.1895 12.2465
LeftUpLeg  -5.76046 9.46528 19.2914
LeftLeg  37.2037 5.80778 5.09455
LeftFoot  -7.94072 0.638188 -19.7337
LeftToes  9.43379e-011 5.24309e-011 -4.66411e-011
1225
root  -22.8112 34.1951 75.6599 -150.921 54.1728 -173.464
RightUpLeg  -56.6538 -6.38628 5.03492
RightLeg  53.2612 -3.76174 -5.78105
RightFoot  -20.8122 0.729943 10.4943
RightToes  -5.28216e-011 1.2921e-014 -6.02303e-014
Spine  27.4132 -4.68941 -9.07228
Spine1  3.11324 -7.39385 5.5391
HEad  -21.3012 16.6324 -9.89064
LeftShoulder1  3.16213 -15.9976 -9.1938
LeftArm  41.2364 -61.8099 -97.0723
LeftForeArm  -0.245264 -22.2964 -5.14055
LeftHand  0.0910619 0.6749 -2.36034
RightShoulder  1.57717 3.74672 15.6659
RightArm  -79.5565 10.7842 25.1807
RightForeArm  20.1908 28.3604 5.0321
RightHand  1.76796 10.5647 12.3411
LeftUpLeg  -7.38382 6.15962 17.9553
LeftLeg  45.3771 3.62176 4.34832
LeftFoot  -8.55354 0.401347 -14.3343
LeftToes  9.43379e-011 5.24309e-011 -4.66411e-011
